<svg viewBox="0 0 350 68" xmlns="http://www.w3.org/2000/svg" xmlns:xlink="http://www.w3.org/1999/xlink" width="350.000000" height="68.000000" fill="none" customFrame="#000000">
	<defs>
		<clipPath id="clipPath_70">
			<rect width="83.000000" height="68.000000" x="0.000000" y="0.000000" fill="rgb(255,255,255)" />
		</clipPath>
		<clipPath id="clipPath_71">
			<rect width="28.000000" height="28.000000" x="27.500000" y="8.000000" fill="rgb(255,255,255)" />
		</clipPath>
		<linearGradient id="paint_linear_9" x1="40.5" x2="40.5" y1="13" y2="17" gradientUnits="userSpaceOnUse">
			<stop stop-color="rgb(188,254,42)" offset="0" stop-opacity="1" />
			<stop stop-color="rgb(255,255,255)" offset="1" stop-opacity="1" />
		</linearGradient>
		<linearGradient id="paint_linear_10" x1="40.500164" x2="40.500164" y1="12.666748" y2="31.3334141" gradientUnits="userSpaceOnUse">
			<stop stop-color="rgb(188,254,42)" offset="0" stop-opacity="1" />
			<stop stop-color="rgb(255,255,255)" offset="1" stop-opacity="1" />
		</linearGradient>
		<clipPath id="clipPath_72">
			<rect width="83.000000" height="68.000000" x="89.000000" y="0.000000" fill="rgb(255,255,255)" />
		</clipPath>
		<clipPath id="clipPath_73">
			<rect width="28.000000" height="28.000000" x="116.500000" y="8.000000" fill="rgb(255,255,255)" />
		</clipPath>
		<linearGradient id="paint_linear_11" x1="131" x2="131" y1="22" y2="32" gradientUnits="userSpaceOnUse">
			<stop stop-color="rgb(188,254,42)" offset="0" stop-opacity="1" />
			<stop stop-color="rgb(255,255,255)" offset="1" stop-opacity="1" />
		</linearGradient>
		<linearGradient id="paint_linear_12" x1="131" x2="131" y1="12" y2="22.0000019" gradientUnits="userSpaceOnUse">
			<stop stop-color="rgb(188,254,42)" offset="0" stop-opacity="1" />
			<stop stop-color="rgb(255,255,255)" offset="1" stop-opacity="1" />
		</linearGradient>
		<clipPath id="clipPath_74">
			<rect width="83.000000" height="68.000000" x="178.000000" y="0.000000" fill="rgb(255,255,255)" />
		</clipPath>
		<clipPath id="clipPath_75">
			<rect width="28.000000" height="28.000000" x="205.500000" y="8.000000" fill="rgb(255,255,255)" />
		</clipPath>
		<linearGradient id="paint_linear_13" x1="219" x2="219" y1="12" y2="33" gradientUnits="userSpaceOnUse">
			<stop stop-color="rgb(188,254,42)" offset="0" stop-opacity="1" />
			<stop stop-color="rgb(255,255,255)" offset="1" stop-opacity="1" />
		</linearGradient>
		<clipPath id="clipPath_76">
			<rect width="83.000000" height="68.000000" x="267.000000" y="0.000000" fill="rgb(255,255,255)" />
		</clipPath>
		<clipPath id="clipPath_77">
			<rect width="28.000000" height="28.000000" x="294.500000" y="8.000000" fill="rgb(255,255,255)" />
		</clipPath>
		<linearGradient id="paint_linear_14" x1="308.5" x2="308.5" y1="12" y2="34" gradientUnits="userSpaceOnUse">
			<stop stop-color="rgb(188,254,42)" offset="0" stop-opacity="1" />
			<stop stop-color="rgb(255,255,255)" offset="1" stop-opacity="1" />
		</linearGradient>
		<linearGradient id="paint_linear_15" x1="308.5" x2="308.5" y1="10" y2="14" gradientUnits="userSpaceOnUse">
			<stop stop-color="rgb(188,254,42)" offset="0" stop-opacity="1" />
			<stop stop-color="rgb(255,255,255)" offset="1" stop-opacity="1" />
		</linearGradient>
	</defs>
	<rect id="Frame 1739336821" width="350.000000" height="68.000000" x="0.000000" y="0.000000" />
	<g id="Frame 1739336819" customFrame="url(#clipPath_70)">
		<rect id="Frame 1739336819" width="83.000000" height="68.000000" x="0.000000" y="0.000000" />
		<g id="Frame" clip-path="url(#clipPath_71)" customFrame="url(#clipPath_71)">
			<rect id="Frame" width="28.000000" height="28.000000" x="27.500000" y="8.000000" fill="rgb(255,255,255)" fill-opacity="0" />
			<g id="Group 1312315298">
				<path id="Vector" d="M29 13.25C29 13.1119 29.5149 13 30.15 13L50.85 13C51.4851 13 52 13.1119 52 13.25L52 16.75C52 16.8881 51.4851 17 50.85 17L30.15 17C29.5149 17 29 16.8881 29 16.75L29 13.25Z" opacity="0" fill="rgb(255,255,255)" fill-rule="nonzero" />
				<path id="Vector" d="M29 13.25C29 13.1119 29.5149 13 30.15 13L50.85 13C51.4851 13 52 13.1119 52 13.25L52 16.75C52 16.8881 51.4851 17 50.85 17L30.15 17C29.5149 17 29 16.8881 29 16.75L29 13.25Z" opacity="0" fill="url(#paint_linear_9)" fill-rule="nonzero" />
				<path id="Vector" d="M28.8335 13.8334C28.8335 13.1891 29.3558 12.6667 30.0002 12.6667L51.0002 12.6667C51.6445 12.6667 52.1668 13.1891 52.1668 13.8334L52.1668 30.1667C52.1668 30.8111 51.6445 31.3334 51.0002 31.3334L30.0002 31.3334C29.3558 31.3334 28.8335 30.8111 28.8335 30.1667L28.8335 13.8334Z" fill="rgb(255,255,255)" fill-opacity="0" fill-rule="nonzero" />
				<path id="Vector" d="M28.8335 13.8334C28.8335 13.1891 29.3558 12.6667 30.0002 12.6667L51.0002 12.6667C51.6445 12.6667 52.1668 13.1891 52.1668 13.8334L52.1668 30.1667C52.1668 30.8111 51.6445 31.3334 51.0002 31.3334L30.0002 31.3334C29.3558 31.3334 28.8335 30.8111 28.8335 30.1667L28.8335 13.8334Z" fill="url(#paint_linear_10)" fill-rule="nonzero" />
				<path id="Vector" d="M30.0002 12.6667L51.0002 12.6667C51.6445 12.6667 52.1668 13.1891 52.1668 13.8334L52.1668 30.1667C52.1668 30.8111 51.6445 31.3334 51.0002 31.3334L30.0002 31.3334C29.3558 31.3334 28.8335 30.8111 28.8335 30.1667L28.8335 13.8334C28.8335 13.1891 29.3558 12.6667 30.0002 12.6667Z" fill-rule="nonzero" stroke="rgb(51,51,51)" stroke-linejoin="round" stroke-width="2.000000" />
				<path id="Vector" d="M28.8335 17.3333L52.1668 17.3333" stroke="rgb(51,51,51)" stroke-linecap="round" stroke-linejoin="round" stroke-width="2.000000" />
				<path id="Vector" d="M42.25 26.6667L47.5 26.6667" stroke="rgb(51,51,51)" stroke-linecap="round" stroke-linejoin="round" stroke-width="2.000000" />
			</g>
			<circle id="Ellipse 913" cx="52" cy="12" r="4" fill="rgb(255,85,46)" />
			<circle id="Ellipse 913" cx="52" cy="12" r="4" stroke="rgb(255,255,255)" stroke-width="1.000000" />
		</g>
		<path id="待付款" d="M23.958 43.518L24.84 43.924C24.112 45.464 22.95 46.836 21.326 48.026L21.032 47.06C22.376 46.024 23.342 44.848 23.958 43.518ZM24.476 46.738L25.344 47.144C25.008 47.9 24.588 48.614 24.084 49.286L24.084 56.37L23.118 56.37L23.118 50.406C22.614 50.938 22.054 51.428 21.452 51.89L21.158 50.924C22.67 49.706 23.776 48.306 24.476 46.738ZM29.194 43.574L30.16 43.574L30.16 45.1L33.31 45.1L33.31 46.01L30.16 46.01L30.16 47.76L33.884 47.76L33.884 48.684L25.54 48.684L25.54 47.76L29.194 47.76L29.194 46.01L26.072 46.01L26.072 45.1L29.194 45.1L29.194 43.574ZM25.61 50.392L31.042 50.392L31.042 49.356L32.05 49.356L32.05 50.392L33.688 50.392L33.688 51.33L32.05 51.33L32.05 54.928C32.05 55.838 31.588 56.3 30.692 56.3L28.704 56.3L28.48 55.334C29.124 55.376 29.754 55.404 30.342 55.404C30.804 55.404 31.042 55.152 31.042 54.676L31.042 51.33L25.61 51.33L25.61 50.392ZM27.262 51.876C28.046 52.674 28.648 53.374 29.068 53.962L28.284 54.522C27.836 53.878 27.234 53.15 26.478 52.366L27.262 51.876ZM38.21 43.476L39.148 43.924C38.84 44.904 38.448 45.814 38 46.682L38 56.468L36.992 56.468L36.992 48.348C36.488 49.09 35.914 49.79 35.284 50.462L34.976 49.412C36.46 47.69 37.538 45.716 38.21 43.476ZM39.442 46.64L44.804 46.64L44.804 43.63L45.812 43.63L45.812 46.64L47.828 46.64L47.828 47.62L45.812 47.62L45.812 54.928C45.812 55.88 45.364 56.356 44.496 56.356L42.466 56.356L42.242 55.362C42.9 55.404 43.53 55.432 44.146 55.432C44.58 55.432 44.804 55.18 44.804 54.676L44.804 47.62L39.442 47.62L39.442 46.64ZM40.73 49.146C41.794 50.406 42.62 51.512 43.194 52.45L42.34 53.052C41.738 52.03 40.926 50.896 39.904 49.65L40.73 49.146ZM49.186 44.876L52.154 44.876L52.154 43.602L53.106 43.602L53.106 44.876L55.682 44.876L55.682 45.772L53.106 45.772L53.106 47.004L55.36 47.004L55.36 47.872L49.676 47.872L49.676 47.004L52.154 47.004L52.154 45.772L49.186 45.772L49.186 44.876ZM50.138 48.978L54.926 48.978L54.926 49.86L50.138 49.86L50.138 48.978ZM49.284 50.924L55.836 50.924L55.836 51.806L53.092 51.806L53.092 55.306C53.092 56.034 52.7 56.412 51.916 56.412L50.726 56.412L50.53 55.502C50.894 55.544 51.258 55.572 51.594 55.572C51.958 55.572 52.14 55.404 52.14 55.082L52.14 51.806L49.284 51.806L49.284 50.924ZM50.334 52.478L51.146 52.632C50.838 53.724 50.404 54.662 49.844 55.46L49.088 54.97C49.662 54.214 50.082 53.388 50.334 52.478ZM54.702 52.366C55.038 53.01 55.346 53.696 55.612 54.438L54.828 54.788C54.548 53.976 54.226 53.248 53.89 52.632L54.702 52.366ZM57.082 43.644L58.006 43.798C57.922 44.526 57.81 45.184 57.684 45.8L61.38 45.8L61.38 46.416C61.198 47.606 60.96 48.782 60.652 49.944L59.714 49.678C59.994 48.81 60.232 47.83 60.414 46.71L57.46 46.71C57.138 47.886 56.718 48.838 56.2 49.566L55.43 49.02C56.284 47.732 56.83 45.94 57.082 43.644ZM58.02 47.816L58.944 47.816C58.944 48.754 58.888 49.622 58.804 50.406C59.42 52.618 60.47 54.382 61.954 55.684L61.282 56.454C60.078 55.278 59.154 53.85 58.51 52.142C58.482 52.24 58.468 52.338 58.44 52.45C58.006 54.102 57.026 55.446 55.486 56.51L54.87 55.768C56.2 54.844 57.082 53.696 57.516 52.296C57.852 51.12 58.02 49.636 58.02 47.816Z" fill="rgb(26,26,26)" fill-rule="nonzero" />
	</g>
	<g id="Frame 1739336820" customFrame="url(#clipPath_72)">
		<rect id="Frame 1739336820" width="83.000000" height="68.000000" x="89.000000" y="0.000000" />
		<g id="Frame" clip-path="url(#clipPath_73)" customFrame="url(#clipPath_73)">
			<rect id="Frame" width="28.000000" height="28.000000" x="116.500000" y="8.000000" fill="rgb(255,255,255)" fill-opacity="0" />
			<g id="Group 1312315297">
				<path id="Vector" d="M122.5 12L139.5 12" stroke="rgb(51,51,51)" stroke-linecap="round" stroke-linejoin="round" stroke-width="2.000000" />
				<path id="Vector" d="M122.5 32L139.5 32" stroke="rgb(51,51,51)" stroke-linecap="round" stroke-linejoin="round" stroke-width="2.000000" />
				<path id="Vector" d="M124.5 32C125.833 25.3306 128 21.9972 131 22C134 22.0028 136.167 25.3361 137.5 32L124.5 32Z" fill="url(#paint_linear_11)" fill-rule="nonzero" />
				<path id="Vector" d="M131 22C134 22.0028 136.167 25.3361 137.5 32L124.5 32C125.833 25.3306 128 21.9972 131 22Z" fill-rule="nonzero" stroke="rgb(51,51,51)" stroke-linejoin="round" stroke-width="2.000000" />
				<path id="Vector" d="M137.5 12C136.167 18.6694 134 22.0028 131 22C128 21.9972 125.833 18.6639 124.5 12L137.5 12Z" fill="url(#paint_linear_12)" fill-rule="nonzero" />
				<path id="Vector" d="M131 22C128 21.9972 125.833 18.6639 124.5 12L137.5 12C136.167 18.6694 134 22.0028 131 22Z" fill-rule="nonzero" stroke="rgb(51,51,51)" stroke-linejoin="round" stroke-width="2.000000" />
				<path id="Vector" d="M129.5 17.5L132.5 17.5" stroke="rgb(51,51,51)" stroke-linecap="round" stroke-linejoin="round" stroke-width="2.000000" />
				<path id="Vector" d="M128.5 29L133.5 29" stroke="rgb(51,51,51)" stroke-linecap="round" stroke-linejoin="round" stroke-width="2.000000" />
			</g>
		</g>
		<path id="进行中" d="M111.292 43.826C112.23 44.554 113.028 45.268 113.672 45.996L112.944 46.71C112.384 46.024 111.6 45.282 110.606 44.484L111.292 43.826ZM119.426 56.188C118.67 56.188 117.844 56.174 116.962 56.16C116.066 56.146 115.352 56.062 114.792 55.908C114.246 55.74 113.756 55.39 113.322 54.886C113.14 54.648 112.958 54.536 112.79 54.536C112.454 54.536 111.908 55.18 111.138 56.468L110.382 55.782C111.124 54.606 111.782 53.892 112.356 53.64L112.356 49.384L110.354 49.384L110.354 48.46L113.294 48.46L113.294 53.696C113.406 53.78 113.518 53.892 113.63 54.018C113.966 54.424 114.316 54.718 114.708 54.9C115.128 55.096 115.758 55.208 116.57 55.236C117.298 55.25 118.208 55.264 119.286 55.264C119.944 55.264 120.616 55.25 121.302 55.236C121.974 55.222 122.506 55.208 122.87 55.18L122.632 56.188L119.426 56.188ZM114.638 45.814L116.29 45.814L116.29 43.588L117.256 43.588L117.256 45.814L119.468 45.814L119.468 43.602L120.448 43.602L120.448 45.814L122.226 45.814L122.226 46.752L120.448 46.752L120.448 49.538L122.674 49.538L122.674 50.49L120.448 50.49L120.448 54.508L119.468 54.508L119.468 50.49L116.976 50.49C116.612 52.17 115.884 53.416 114.806 54.228L114.204 53.416C115.086 52.786 115.688 51.806 115.996 50.49L114.148 50.49L114.148 49.538L116.178 49.538C116.248 49.006 116.29 48.446 116.29 47.858L116.29 46.752L114.638 46.752L114.638 45.814ZM117.256 46.752L117.256 47.634C117.256 48.306 117.214 48.95 117.144 49.538L119.468 49.538L119.468 46.752L117.256 46.752ZM129.45 44.498L136.156 44.498L136.156 45.492L129.45 45.492L129.45 44.498ZM129.072 48.054L136.772 48.054L136.772 49.048L134.504 49.048L134.504 55.166C134.504 55.978 134.042 56.384 133.146 56.384L131.088 56.384L130.878 55.39C131.55 55.432 132.18 55.46 132.796 55.46C133.244 55.46 133.482 55.278 133.482 54.914L133.482 49.048L129.072 49.048L129.072 48.054ZM127.238 43.728L128.148 44.148C127.364 45.702 126.104 47.074 124.368 48.264L124.074 47.256C125.53 46.22 126.58 45.044 127.238 43.728ZM127.896 46.92L128.806 47.34C128.4 48.124 127.896 48.88 127.28 49.58L127.28 56.44L126.286 56.44L126.286 50.602C125.726 51.106 125.124 51.596 124.452 52.058L124.158 51.05C125.866 49.846 127.112 48.474 127.896 46.92ZM143.982 43.546L145.018 43.546L145.018 46.066L150.044 46.066L150.044 52.646L149.036 52.646L149.036 51.764L145.018 51.764L145.018 56.538L143.982 56.538L143.982 51.764L139.978 51.764L139.978 52.646L138.97 52.646L138.97 46.066L143.982 46.066L143.982 43.546ZM139.978 50.784L143.982 50.784L143.982 47.046L139.978 47.046L139.978 50.784ZM145.018 50.784L149.036 50.784L149.036 47.046L145.018 47.046L145.018 50.784Z" fill="rgb(26,26,26)" fill-rule="nonzero" />
	</g>
	<g id="Frame 1739336821" customFrame="url(#clipPath_74)">
		<rect id="Frame 1739336821" width="83.000000" height="68.000000" x="178.000000" y="0.000000" />
		<g id="Frame" clip-path="url(#clipPath_75)" customFrame="url(#clipPath_75)">
			<rect id="Frame" width="28.000000" height="28.000000" x="205.500000" y="8.000000" fill="rgb(255,255,255)" fill-opacity="0" />
			<path id="Rectangle 4003" d="M225 12C226.657 12 228 13.3431 228 15L228 33L210 33L210 12L225 12Z" fill="url(#paint_linear_13)" fill-rule="evenodd" />
			<path id="Vector" d="M222.208 11.1667L211.375 11.1667C210.777 11.1667 210.292 11.6518 210.292 12.2501L210.292 31.7501C210.292 32.3484 210.777 32.8334 211.375 32.8334L226.542 32.8334C227.14 32.8334 227.625 32.3484 227.625 31.7501L227.625 19.8359" stroke="rgb(51,51,51)" stroke-linecap="round" stroke-linejoin="round" stroke-width="2.000000" />
			<path id="Vector" d="M213.542 18.75L217.875 18.75" stroke="rgb(51,51,51)" stroke-linecap="round" stroke-width="2.000000" />
			<path id="Vector" d="M213.542 24.1667L220.042 24.1667" stroke="rgb(51,51,51)" stroke-linecap="round" stroke-width="2.000000" />
			<path id="Vector" d="M228.708 12.2505L222.211 18.7477" stroke="rgb(51,51,51)" stroke-linecap="round" stroke-linejoin="round" stroke-width="2.000000" />
		</g>
		<path id="待评价" d="M201.958 43.518L202.84 43.924C202.112 45.464 200.95 46.836 199.326 48.026L199.032 47.06C200.376 46.024 201.342 44.848 201.958 43.518ZM202.476 46.738L203.344 47.144C203.008 47.9 202.588 48.614 202.084 49.286L202.084 56.37L201.118 56.37L201.118 50.406C200.614 50.938 200.054 51.428 199.452 51.89L199.158 50.924C200.67 49.706 201.776 48.306 202.476 46.738ZM207.194 43.574L208.16 43.574L208.16 45.1L211.31 45.1L211.31 46.01L208.16 46.01L208.16 47.76L211.884 47.76L211.884 48.684L203.54 48.684L203.54 47.76L207.194 47.76L207.194 46.01L204.072 46.01L204.072 45.1L207.194 45.1L207.194 43.574ZM203.61 50.392L209.042 50.392L209.042 49.356L210.05 49.356L210.05 50.392L211.688 50.392L211.688 51.33L210.05 51.33L210.05 54.928C210.05 55.838 209.588 56.3 208.692 56.3L206.704 56.3L206.48 55.334C207.124 55.376 207.754 55.404 208.342 55.404C208.804 55.404 209.042 55.152 209.042 54.676L209.042 51.33L203.61 51.33L203.61 50.392ZM205.262 51.876C206.046 52.674 206.648 53.374 207.068 53.962L206.284 54.522C205.836 53.878 205.234 53.15 204.478 52.366L205.262 51.876ZM217.946 44.246L225.534 44.246L225.534 45.198L222.216 45.198L222.216 50.476L225.954 50.476L225.954 51.442L222.216 51.442L222.216 56.44L221.236 56.44L221.236 51.442L217.554 51.442L217.554 50.476L221.236 50.476L221.236 45.198L217.946 45.198L217.946 44.246ZM224.26 45.898L225.142 46.136C224.848 47.494 224.47 48.684 224.022 49.706L223.168 49.412C223.588 48.488 223.952 47.312 224.26 45.898ZM219.024 45.982C219.444 47.004 219.808 48.18 220.144 49.51L219.276 49.734C218.996 48.53 218.618 47.368 218.156 46.262L219.024 45.982ZM214.768 43.742C215.72 44.456 216.518 45.17 217.162 45.898L216.476 46.598C215.888 45.912 215.076 45.184 214.068 44.428L214.768 43.742ZM213.088 47.886L216.112 47.886L216.112 54.088C216.56 53.696 217.036 53.248 217.554 52.73L217.834 53.794C217.008 54.606 216.14 55.32 215.216 55.95L214.824 55.054C215.034 54.858 215.146 54.662 215.146 54.438L215.146 48.852L213.088 48.852L213.088 47.886ZM228.838 48.46C228.39 49.118 227.886 49.748 227.354 50.336L227.018 49.272C228.39 47.62 229.398 45.73 230.014 43.602L230.966 44.036C230.672 44.974 230.308 45.87 229.874 46.724L229.874 56.398L228.838 56.398L228.838 48.46ZM236.412 48.502L237.392 48.502L237.392 56.314L236.412 56.314L236.412 48.502ZM232.814 48.544L233.78 48.544L233.78 50.658C233.752 53.304 233.066 55.236 231.722 56.468L230.966 55.81C232.17 54.746 232.786 53.024 232.814 50.658L232.814 48.544ZM234.592 43.672L235.502 43.672C236.37 45.548 237.882 47.186 240.01 48.6L239.436 49.454C237.476 48.152 236.006 46.542 235.04 44.638C233.92 46.78 232.52 48.432 230.826 49.608L230.266 48.754C232.142 47.452 233.584 45.758 234.592 43.672Z" fill="rgb(26,26,26)" fill-rule="nonzero" />
	</g>
	<g id="Frame 1739336822" customFrame="url(#clipPath_76)">
		<rect id="Frame 1739336822" width="83.000000" height="68.000000" x="267.000000" y="0.000000" />
		<g id="Frame 1739336823" clip-path="url(#clipPath_77)" customFrame="url(#clipPath_77)">
			<rect id="Frame 1739336823" width="28.000000" height="28.000000" x="294.500000" y="8.000000" fill="rgb(255,255,255)" />
			<rect id="Rectangle 4005" width="19.000000" height="22.000000" x="299.000000" y="12.000000" rx="3.000000" fill="url(#paint_linear_14)" />
			<rect id="Rectangle 4005" width="19.000000" height="22.000000" x="299.000000" y="12.000000" rx="3.000000" stroke="rgb(26,26,26)" stroke-width="2.000000" />
			<rect id="Rectangle 4004" width="10.000000" height="4.000000" x="303.500000" y="10.000000" rx="2.000000" fill="rgb(217,217,217)" />
			<rect id="Rectangle 4004" width="10.000000" height="4.000000" x="303.500000" y="10.000000" rx="2.000000" fill="url(#paint_linear_15)" />
			<rect id="Rectangle 4004" width="10.000000" height="4.000000" x="303.500000" y="10.000000" rx="2.000000" stroke="rgb(26,26,26)" stroke-width="2.000000" />
			<g id="Group 1312315299">
				<path id="Vector" d="M306.5 21L311.75 26.25" stroke="rgb(26,26,26)" stroke-linecap="round" stroke-linejoin="round" stroke-width="2.000000" />
				<path id="Vector" d="M306.5 26.25L311.75 21" stroke="rgb(26,26,26)" stroke-linecap="round" stroke-linejoin="round" stroke-width="2.000000" />
			</g>
		</g>
		<path id="已取消" d="M299.19 49.944L290.398 49.944L290.398 54.074C290.398 54.69 290.72 55.012 291.364 55.012L298.392 55.012C298.728 55.012 299.008 54.928 299.218 54.76C299.498 54.508 299.68 53.612 299.764 52.072L300.744 52.38C300.604 54.116 300.366 55.152 300.03 55.516C299.722 55.81 299.26 55.964 298.672 55.992L291.084 55.992C289.95 55.992 289.39 55.404 289.39 54.256L289.39 46.906L290.398 46.906L290.398 48.978L298.168 48.978L298.168 45.324L288.83 45.324L288.83 44.344L299.19 44.344L299.19 49.944ZM309.158 52.604L309.158 53.598C308.724 53.71 308.304 53.808 307.884 53.906L307.884 56.44L306.904 56.44L306.904 54.13C305.448 54.438 303.95 54.704 302.382 54.928L302.144 53.948C302.564 53.892 302.984 53.822 303.404 53.766L303.404 45.1L302.298 45.1L302.298 44.148L308.962 44.148L308.962 44.904L314.38 44.904L314.38 45.828C314.072 48.418 313.428 50.63 312.462 52.464C313.134 53.612 313.974 54.676 314.968 55.642L314.296 56.412C313.358 55.446 312.574 54.438 311.93 53.388C311.174 54.564 310.278 55.572 309.228 56.398L308.542 55.614C309.676 54.718 310.614 53.654 311.37 52.394C310.334 50.406 309.718 48.236 309.522 45.884L308.962 45.884L308.962 45.1L307.884 45.1L307.884 52.912C308.318 52.814 308.738 52.716 309.158 52.604ZM310.446 45.884C310.614 47.9 311.104 49.734 311.902 51.4C312.658 49.804 313.176 47.97 313.428 45.884L310.446 45.884ZM306.904 53.136L306.904 51.232L304.384 51.232L304.384 53.612C305.238 53.472 306.078 53.304 306.904 53.136ZM304.384 50.322L306.904 50.322L306.904 48.194L304.384 48.194L304.384 50.322ZM304.384 47.27L306.904 47.27L306.904 45.1L304.384 45.1L304.384 47.27ZM323.844 43.644L324.88 43.644L324.88 47.466L327.904 47.466L327.904 54.97C327.904 55.894 327.456 56.356 326.588 56.356L324.95 56.356L324.684 55.376L326.252 55.404C326.686 55.404 326.91 55.18 326.91 54.746L326.91 53.374L321.856 53.374L321.856 56.37L320.848 56.37L320.848 47.466L323.844 47.466L323.844 43.644ZM321.856 50.91L321.856 52.506L326.91 52.506L326.91 50.91L321.856 50.91ZM326.91 50.042L326.91 48.432L321.856 48.432L321.856 50.042L326.91 50.042ZM321.058 44.008C321.59 44.736 322.094 45.534 322.584 46.402L321.772 46.794C321.296 45.912 320.778 45.114 320.218 44.414L321.058 44.008ZM327.68 43.938L328.506 44.33C328.086 45.226 327.54 46.08 326.868 46.906L326.07 46.5C326.742 45.632 327.288 44.778 327.68 43.938ZM318.762 50.868L319.644 51.218C318.944 53.01 318.188 54.704 317.348 56.286L316.424 55.88C317.32 54.242 318.09 52.576 318.762 50.868ZM317.39 43.812C318.356 44.512 319.168 45.212 319.826 45.912L319.112 46.626C318.524 45.954 317.712 45.254 316.676 44.498L317.39 43.812ZM316.984 47.102C317.908 47.802 318.664 48.502 319.28 49.202L318.566 49.916C318.006 49.258 317.25 48.544 316.27 47.788L316.984 47.102Z" fill="rgb(26,26,26)" fill-rule="nonzero" />
	</g>
</svg>
