<svg viewBox="0 0 168 78" xmlns="http://www.w3.org/2000/svg" xmlns:xlink="http://www.w3.org/1999/xlink" width="168.000000" height="78.000000" fill="none" customFrame="#000000">
	<defs>
		<clipPath id="clipPath_11">
			<rect width="78.000000" height="43.000000" x="12.000000" y="17.000000" fill="rgb(255,255,255)" />
		</clipPath>
		<clipPath id="clipPath_12">
			<rect width="39.000000" height="39.000000" x="116.000000" y="19.000000" fill="rgb(255,255,255)" />
		</clipPath>
	</defs>
	<g id="Group 1312315304">
		<rect id="Rectangle 4017" width="168.000000" height="78.000000" x="0.000000" y="0.000000" rx="10.000000" fill="rgb(255,230,106)" />
		<g id="Frame 1739336893" customFrame="url(#clipPath_11)">
			<rect id="Frame 1739336893" width="78.000000" height="43.000000" x="12.000000" y="17.000000" />
			<path id="任务中心" d="M24.762 33.734L28.74 33.734L28.74 35.606L18.696 35.606L18.516 33.734L22.566 33.734L22.566 28.838L18.246 28.838L18.066 26.966L22.566 26.966L22.566 22.718L18.948 22.718L18.732 20.828L22.692 20.828C24.942 20.828 27.102 20.63 28.524 20.162L28.524 21.998C27.3 22.412 26.076 22.592 24.762 22.664L24.762 26.966L29.262 26.966L29.262 28.838L24.762 28.838L24.762 33.734ZM14.898 26.192L15.87 26.192C16.68 26.192 17.13 26.642 17.13 27.452L17.13 36.164L14.934 36.164L14.934 27.56L13.476 27.56L12.81 25.58C14.7 23.942 15.672 21.962 16.158 19.964L18.48 19.964C17.886 22.646 16.842 24.662 14.898 26.192ZM42.276 25.832C43.608 25.994 45.21 26.084 47.172 26.12L46.83 28.028C43.644 28.028 41.124 27.722 39.09 27.074C36.84 27.704 34.158 28.046 31.206 28.046L30.846 26.264C32.952 26.264 34.806 26.12 36.408 25.85C35.562 25.328 34.824 24.698 34.176 23.96C33.492 24.554 32.664 24.986 31.728 25.364L30.99 23.546C32.898 22.7 33.546 21.638 33.798 19.964L36.084 19.964C36.03 20.378 35.958 20.756 35.868 21.116L44.04 21.116C45.282 21.116 45.75 22.016 45.318 22.988C44.814 24.086 43.77 25.058 42.276 25.832ZM39.18 25.184C40.854 24.626 42.15 23.852 43.104 22.88L35.112 22.88C35.022 23.024 34.914 23.168 34.806 23.312L36.066 23.312C36.948 24.14 37.884 24.752 39.18 25.184ZM38.892 29.054L43.86 29.054C45.012 29.054 45.642 29.666 45.786 30.8C45.894 31.628 45.894 32.564 45.786 33.374C45.57 34.922 44.85 35.606 43.302 35.75C41.952 35.876 40.674 35.84 39.324 35.66L38.838 33.698C40.188 33.896 41.376 34.004 42.69 33.86C43.212 33.788 43.536 33.626 43.68 32.978C43.806 32.42 43.806 31.844 43.68 31.304C43.626 31.052 43.41 30.926 43.212 30.926L38.712 30.926C38.082 33.23 35.706 35.048 31.386 36.074L30.81 34.112C33.906 33.446 35.688 32.294 36.372 30.926L31.998 30.926L31.818 29.054L36.732 29.054L36.732 28.118L38.892 28.118L38.892 29.054ZM58.098 31.286L58.098 36.164L55.902 36.164L55.902 31.286L50.88 31.286C49.908 31.286 49.44 30.818 49.44 29.846L49.44 23.978C49.44 23.006 49.908 22.538 50.88 22.538L55.902 22.538L55.902 19.964L58.098 19.964L58.098 22.538L63.102 22.538C64.074 22.538 64.542 23.006 64.542 23.978L64.542 29.846C64.542 30.818 64.074 31.286 63.102 31.286L58.098 31.286ZM58.098 29.414L62.076 29.414C62.256 29.414 62.346 29.324 62.346 29.144L62.346 24.68C62.346 24.5 62.256 24.41 62.076 24.41L58.098 24.41L58.098 29.414ZM55.902 29.414L55.902 24.41L51.906 24.41C51.726 24.41 51.636 24.5 51.636 24.68L51.636 29.144C51.636 29.324 51.726 29.414 51.906 29.414L55.902 29.414ZM67.512 32.294L68.394 24.158L70.428 24.158L69.546 32.294L67.512 32.294ZM73.632 32.834C73.632 33.374 73.83 33.662 74.316 33.77C75.144 33.95 77.088 33.968 77.862 33.77C78.438 33.626 78.6 33.392 78.6 32.942L78.6 30.656L80.724 30.944L80.724 33.842C80.724 35.03 80.202 35.552 78.816 35.732C77.574 35.894 74.694 35.912 73.326 35.732C72.192 35.588 71.4 34.904 71.4 33.698L71.4 22.574L73.632 22.574L73.632 32.834ZM75.792 25.67L74.442 19.982L76.584 19.982L77.934 25.67L75.792 25.67ZM81.408 31.268L79.482 24.158L81.606 24.158L83.514 31.268L81.408 31.268Z" fill="rgb(26,26,26)" fill-rule="nonzero" />
			<path id="做任务·领福利" d="M19.956 50.312C19.764 50.708 19.56 51.068 19.344 51.38L18.828 50.756C19.548 49.616 20.028 48.08 20.28 46.136L21.084 46.28C21 46.844 20.904 47.372 20.784 47.876L23.376 47.876L23.376 48.68L22.812 48.68C22.776 50.84 22.44 52.64 21.804 54.056C22.272 54.944 22.86 55.736 23.58 56.408L22.98 56.984C22.344 56.348 21.804 55.64 21.372 54.872C20.844 55.748 20.196 56.456 19.404 57.008L18.9 56.348C19.764 55.784 20.448 55.016 20.952 54.044C20.448 52.928 20.112 51.68 19.956 50.312ZM21.36 53.096C21.804 51.86 22.032 50.384 22.056 48.68L20.568 48.68L20.496 48.932C20.58 50.492 20.868 51.884 21.36 53.096ZM14.844 46.052L15.624 46.424C15.36 47.288 15.048 48.104 14.664 48.872L14.664 57.044L13.824 57.044L13.824 50.336C13.476 50.852 13.104 51.356 12.696 51.836L12.42 50.912C13.524 49.496 14.34 47.876 14.844 46.052ZM18.996 51.476L18.996 55.628L16.416 55.628L16.416 56.408L15.6 56.408L15.6 51.476L16.884 51.476L16.884 49.124L15.324 49.124L15.324 48.32L16.884 48.32L16.884 46.184L17.7 46.184L17.7 48.32L19.236 48.32L19.236 49.124L17.7 49.124L17.7 51.476L18.996 51.476ZM16.416 54.872L18.18 54.872L18.18 52.244L16.416 52.244L16.416 54.872ZM34.536 46.412L34.956 47.144C34.092 47.432 33.084 47.648 31.932 47.78L31.932 51.152L35.448 51.152L35.448 51.992L31.932 51.992L31.932 55.76L34.848 55.76L34.848 56.612L28.176 56.612L28.176 55.76L31.068 55.76L31.068 51.992L27.576 51.992L27.576 51.152L31.068 51.152L31.068 47.864C30.252 47.924 29.388 47.96 28.476 47.96L28.2 47.144C30.744 47.144 32.856 46.892 34.536 46.412ZM27.24 46.04L28.044 46.412C27.732 47.336 27.324 48.212 26.844 49.028L26.844 57.044L25.98 57.044L25.98 50.312C25.596 50.816 25.164 51.308 24.696 51.776L24.42 50.852C25.716 49.46 26.652 47.852 27.24 46.04ZM40.128 45.98L41.004 46.1C40.872 46.424 40.716 46.724 40.548 47.012L45.78 47.012L45.78 47.708C45.012 48.596 44.076 49.352 42.972 49.976C44.328 50.552 45.84 50.924 47.508 51.092L47.112 51.896C45.216 51.68 43.524 51.2 42.036 50.456C40.572 51.128 38.856 51.62 36.912 51.92L36.516 51.104C38.256 50.864 39.78 50.48 41.1 49.952C40.428 49.556 39.804 49.1 39.228 48.596C38.772 49.004 38.28 49.376 37.728 49.712L37.2 49.016C38.64 48.188 39.624 47.18 40.128 45.98ZM42.024 49.532C42.996 49.052 43.836 48.476 44.544 47.828L39.96 47.828L39.804 48.02C40.476 48.608 41.22 49.112 42.024 49.532ZM41.292 51.32L42.144 51.32C42.144 51.8 42.096 52.256 42.024 52.688L46.248 52.688C46.224 54.716 46.044 55.928 45.696 56.324C45.348 56.72 44.748 56.924 43.896 56.924C43.512 56.924 43.044 56.9 42.492 56.876L42.276 56.096L43.692 56.156C44.412 56.144 44.856 55.988 45.048 55.7C45.228 55.412 45.336 54.668 45.372 53.468L41.82 53.468C41.724 53.78 41.592 54.08 41.436 54.368C40.824 55.448 39.42 56.348 37.212 57.044L36.636 56.336C38.604 55.76 39.912 55.028 40.536 54.152C40.68 53.936 40.812 53.708 40.908 53.468L37.332 53.468L37.332 52.688L41.148 52.688C41.244 52.256 41.292 51.8 41.292 51.32ZM51 50.624C51.24 50.624 51.444 50.708 51.612 50.876C51.78 51.044 51.876 51.26 51.876 51.5C51.876 51.74 51.78 51.944 51.612 52.112C51.444 52.28 51.24 52.364 51 52.364C50.76 52.364 50.556 52.28 50.388 52.112C50.208 51.944 50.124 51.74 50.124 51.5C50.124 51.26 50.208 51.044 50.388 50.876C50.556 50.708 50.76 50.624 51 50.624ZM59.64 46.52L65.328 46.52L65.328 47.336L62.94 47.336C62.88 47.792 62.808 48.224 62.712 48.656L64.956 48.656L64.956 54.32L64.116 54.32L64.116 49.448L61.008 49.448L61.008 54.416L60.156 54.416L60.156 48.656L61.872 48.656C61.968 48.224 62.04 47.792 62.088 47.336L59.64 47.336L59.64 46.52ZM63.456 54.356C64.272 55.052 64.956 55.76 65.52 56.456L64.908 57.068C64.416 56.396 63.732 55.676 62.868 54.92L63.456 54.356ZM62.136 50.24L62.952 50.24L62.952 52.304C62.928 53.588 62.676 54.62 62.208 55.388C61.752 56.096 61.008 56.66 59.976 57.068L59.52 56.336C60.492 55.964 61.176 55.46 61.56 54.836C61.92 54.188 62.112 53.348 62.136 52.304L62.136 50.24ZM56.856 46.124L57.504 46.124C58.32 47.072 59.112 48.08 59.88 49.148L59.304 49.76C58.524 48.584 57.84 47.648 57.264 46.952C56.58 48.176 55.788 49.292 54.888 50.3L54.396 49.604C55.296 48.62 56.112 47.456 56.856 46.124ZM55.08 51.368L59.376 51.368L59.376 52.088C58.86 53.18 58.272 54.152 57.6 55.016C58.068 55.46 58.5 55.904 58.884 56.348L58.26 56.96C57.54 56.06 56.556 55.1 55.296 54.08L55.872 53.528C56.28 53.852 56.664 54.176 57.036 54.5C57.528 53.84 57.996 53.06 58.452 52.172L55.08 52.172L55.08 51.368ZM57.108 48.728C57.636 49.436 58.032 50.048 58.32 50.576L57.696 51.02C57.396 50.444 56.988 49.808 56.484 49.112L57.108 48.728ZM70.788 46.496L77.316 46.496L77.316 47.264L70.788 47.264L70.788 46.496ZM71.484 48.104L76.596 48.104L76.596 50.756L71.484 50.756L71.484 48.104ZM75.78 50.06L75.78 48.8L72.3 48.8L72.3 50.06L75.78 50.06ZM77.136 51.62L77.136 57.032L76.32 57.032L76.32 56.54L71.736 56.54L71.736 57.032L70.92 57.032L70.92 51.62L77.136 51.62ZM71.736 55.784L73.62 55.784L73.62 54.416L71.736 54.416L71.736 55.784ZM74.436 55.784L76.32 55.784L76.32 54.416L74.436 54.416L74.436 55.784ZM71.736 53.696L73.62 53.696L73.62 52.34L71.736 52.34L71.736 53.696ZM74.436 52.34L74.436 53.696L76.32 53.696L76.32 52.34L74.436 52.34ZM68.184 52.064C67.752 52.532 67.284 52.988 66.78 53.444L66.516 52.532C68.028 51.164 69.048 49.832 69.552 48.536L66.756 48.536L66.756 47.708L68.496 47.708C68.316 47.18 68.1 46.664 67.86 46.172L68.676 45.932C68.928 46.532 69.132 47.072 69.276 47.576L68.928 47.708L70.416 47.708L70.416 48.44C70.128 49.316 69.66 50.18 69.024 51.044L69.024 51.068C69.6 51.452 70.14 51.884 70.62 52.376L70.152 53.084C69.78 52.64 69.408 52.256 69.024 51.932L69.024 57.02L68.184 57.02L68.184 52.064ZM78.696 49.256L81.084 49.256L81.084 47.624C80.4 47.744 79.704 47.84 78.996 47.888L78.732 47.084C80.688 46.928 82.32 46.592 83.628 46.064L84.048 46.796C83.376 47.06 82.68 47.276 81.96 47.444L81.96 49.256L84.18 49.256L84.18 50.084L81.96 50.084L81.96 50.636C82.704 51.284 83.472 52.016 84.264 52.844L83.748 53.612C83.052 52.724 82.452 52.028 81.96 51.524L81.96 57.02L81.084 57.02L81.084 51.632C80.508 52.796 79.752 53.852 78.816 54.8L78.432 53.804C79.668 52.724 80.556 51.488 81.084 50.108L81.084 50.084L78.696 50.084L78.696 49.256ZM85.176 47.144L86.04 47.144L86.04 54.56L85.176 54.56L85.176 47.144ZM87.756 56.912L85.992 56.912L85.812 56.072C86.388 56.096 86.94 56.12 87.468 56.12C87.816 56.12 87.996 55.916 87.996 55.532L87.996 46.052L88.872 46.052L88.872 55.748C88.872 56.516 88.5 56.912 87.756 56.912Z" fill="rgb(26,26,26)" fill-rule="nonzero" />
		</g>
		<g id="Frame" clip-path="url(#clipPath_12)" customFrame="url(#clipPath_12)">
			<rect id="Frame" width="39.000000" height="39.000000" x="116.000000" y="19.000000" fill="rgb(255,255,255)" fill-opacity="0" />
			<path id="Vector" d="M149.312 35.25L121.688 35.25L121.688 54.75L149.312 54.75L149.312 35.25Z" fill-rule="nonzero" stroke="rgb(51,51,51)" stroke-linecap="round" stroke-linejoin="round" stroke-width="1.600000" />
			<path id="Vector" d="M19.5 0L0 0" stroke="rgb(51,51,51)" stroke-linecap="round" stroke-linejoin="round" stroke-width="1.600000" transform="matrix(0,1,-1,0,135.5,35.25)" />
			<path id="Vector" d="M149.312 54.75L121.688 54.75" stroke="rgb(51,51,51)" stroke-linecap="round" stroke-linejoin="round" stroke-width="1.600000" />
			<path id="Vector" d="M151.75 28.75L151.75 35.25L119.25 35.25L119.25 28.75L151.75 28.75Z" fill-rule="evenodd" stroke="rgb(51,51,51)" stroke-linejoin="round" stroke-width="1.600000" />
			<path id="Vector" d="M129 22.25L135.5 28.75L142 22.25" stroke="rgb(51,51,51)" stroke-linecap="round" stroke-linejoin="round" stroke-width="1.600000" />
		</g>
		<path id="Union" d="M157.784 12C159.722 12.0028 161.422 13.2596 161.967 15.0957C162.172 15.7882 162.141 16.486 161.904 17.1572C161.752 17.5891 161.548 18.0127 161.306 18.4014C160.014 20.4718 158.684 22.5178 157.406 24.5967C156.246 26.4844 155.14 28.4043 154 30.3047C153.777 30.6764 153.527 31.0377 153.254 31.374C152.427 32.3921 151.113 32.4171 150.223 32.0596C149.156 31.6304 148.54 30.6745 148.565 29.5176C148.58 28.8244 148.762 28.1619 148.946 27.502C149.704 24.7823 150.548 22.0891 151.679 19.499C152.427 17.784 153.254 16.1018 154.08 14.4229C154.286 14.0044 154.6 13.6275 154.912 13.2734C155.668 12.4139 156.636 11.9942 157.784 12.002L157.784 12ZM149.539 33.5225C152.313 33.5366 154.488 35.7299 154.494 38.4795C154.5 41.1802 152.228 43.6494 149.319 43.5693C146.599 43.4948 144.373 41.2907 144.372 38.5449C144.371 36.0305 146.278 33.517 149.539 33.5225ZM152.655 44.624C150.461 43.7035 148.184 43.6273 145.898 44.21C143.394 44.8487 141.568 46.3412 140.53 48.7295C140.019 49.9055 139.84 51.1319 140.159 52.4014C140.397 53.3495 140.892 54.0873 141.826 54.4746C141.849 54.4839 141.866 54.5089 141.912 54.5498C141.912 54.5794 141.912 54.6113 141.913 54.6449C141.913 54.7173 141.914 54.7972 141.912 54.877C141.856 57.1385 142.033 59.3845 142.37 61.6191C142.484 62.3788 142.515 63.1238 142.386 63.8955C142.184 65.0965 142.835 65.9377 144.017 66.1367C144.624 66.2386 145.231 66.227 145.823 66.0557C147.03 65.7073 147.881 64.9865 148.129 63.707C148.217 63.2574 148.234 62.7904 148.253 62.3301C148.266 61.9878 148.263 61.6446 148.259 61.3016C148.257 61.1437 148.256 60.9859 148.256 60.8281C148.285 60.8232 148.315 60.8175 148.345 60.8125C148.572 61.342 148.793 61.8741 149.029 62.3994C149.369 63.1569 149.702 63.9188 150.071 64.6621C150.389 65.3015 150.842 65.8471 151.516 66.1289C152.538 66.5571 153.596 66.6031 154.644 66.2266C155.718 65.8414 156.166 64.8883 155.812 63.8135C155.643 63.3001 155.449 62.7942 155.294 62.2773C154.795 60.6112 154.307 58.9402 153.818 57.2705C153.723 56.9458 153.645 56.6152 153.559 56.2891C153.622 56.2559 153.652 56.229 153.688 56.2197C154.281 56.0725 154.725 55.7201 155.079 55.2344C155.296 54.9363 155.533 54.651 155.749 54.3516C156.244 53.6661 156.698 52.9617 156.984 52.1523C157.353 51.1101 157.339 50.0828 156.969 49.0547C156.203 46.9269 154.707 45.4851 152.655 44.624Z" fill="rgb(255,230,106)" fill-rule="evenodd" />
		<path id="Union" d="M157.785 12C159.722 12.0028 161.422 13.259 161.967 15.0952C162.172 15.7877 162.141 16.4852 161.904 17.1565C161.752 17.5884 161.548 18.0119 161.306 18.4006C160.015 20.4711 158.684 22.5169 157.406 24.5959C156.246 26.4837 155.14 28.4041 154 30.3047C153.777 30.6764 153.527 31.0368 153.254 31.3732C152.427 32.3915 151.114 32.417 150.224 32.0594C149.157 31.6302 148.54 30.6743 148.566 29.5172C148.581 28.824 148.762 28.1619 148.946 27.502C149.704 24.7821 150.548 22.0885 151.678 19.4982C152.427 17.7831 153.254 16.1014 154.08 14.4224C154.286 14.004 154.6 13.6272 154.912 13.2732C155.668 12.4135 156.636 11.9936 157.784 12.0014L157.785 12ZM157.858 13.3298C157.356 13.322 156.886 13.4318 156.456 13.691C155.948 13.9983 155.556 14.4224 155.276 14.9429C155.02 15.418 154.783 15.9045 154.547 16.3896C152.8 19.9613 151.376 23.6562 150.345 27.4984C150.184 28.0954 150.045 28.7001 149.931 29.3076C149.812 29.9478 150.097 30.5475 150.639 30.8053C151.245 31.0942 151.749 31.0376 152.264 30.5242C152.485 30.3047 152.661 30.032 152.821 29.7615C153.996 27.7774 155.138 25.7727 156.338 23.8028C157.497 21.9008 158.715 20.0356 159.898 18.1478C160.142 17.7584 160.368 17.3526 160.556 16.9334C160.822 16.3407 160.827 15.714 160.56 15.127C160.037 13.9785 159.123 13.3787 157.858 13.3298ZM149.54 33.5224C152.314 33.5365 154.488 35.7295 154.494 38.4791C154.5 41.1799 152.229 43.6491 149.32 43.569C146.599 43.4947 144.374 41.2903 144.372 38.5443C144.372 36.0298 146.279 33.5167 149.54 33.5224ZM149.492 34.8515C147.363 34.7538 145.69 36.5644 145.719 38.4968C145.754 40.7706 147.465 42.2272 149.496 42.2498C151.524 42.2725 153.167 40.4364 153.174 38.5415C153.18 36.4547 151.568 34.8458 149.492 34.8515ZM148.26 61.2871C148.258 61.134 148.257 60.9809 148.257 60.8279L148.256 60.8272C148.285 60.8223 148.315 60.8166 148.345 60.8116C148.572 61.3413 148.793 61.8731 149.029 62.3985C149.369 63.1562 149.703 63.9181 150.072 64.6616C150.389 65.3011 150.841 65.8463 151.515 66.1281C152.538 66.5565 153.596 66.6026 154.645 66.2259C155.719 65.8406 156.167 64.8875 155.813 63.8126C155.644 63.2992 155.449 62.7936 155.294 62.2767C154.795 60.6105 154.307 58.9401 153.819 57.2704C153.724 56.9454 153.645 56.6147 153.559 56.2882C153.622 56.2549 153.653 56.2287 153.689 56.2195C154.281 56.0723 154.726 55.7196 155.079 55.2339C155.297 54.9357 155.533 54.6504 155.749 54.3508C156.245 53.6654 156.698 52.9615 156.984 52.1522C157.353 51.1098 157.339 50.0823 156.969 49.0542C156.203 46.9263 154.707 45.4846 152.655 44.6235C150.461 43.703 148.185 43.6272 145.898 44.21C143.394 44.8487 141.567 46.3407 140.53 48.7291C140.019 49.9053 139.84 51.1318 140.159 52.4014C140.397 53.3496 140.892 54.0867 141.826 54.4741C141.849 54.4833 141.866 54.508 141.912 54.5491C141.912 54.5787 141.912 54.6106 141.912 54.6442C141.913 54.7166 141.914 54.7964 141.912 54.8763C141.856 57.138 142.034 59.3841 142.37 61.6189C142.484 62.3787 142.515 63.1236 142.386 63.8955C142.185 65.0964 142.835 65.9376 144.017 66.1366C144.624 66.2386 145.231 66.2266 145.823 66.0552C147.03 65.7068 147.88 64.9859 148.129 63.7064C148.216 63.2567 148.234 62.7901 148.253 62.3298C148.266 61.9827 148.263 61.6349 148.26 61.2871ZM142.103 52.941C142.095 52.9785 142.071 53.0118 142.027 53.0996C141.575 52.6281 141.404 52.0888 141.352 51.5014C141.276 50.6524 141.453 49.8494 141.813 49.0825C142.775 47.0339 144.413 45.8224 146.592 45.3614C148.493 44.9592 150.378 45.0753 152.178 45.8691C153.788 46.5786 154.991 47.7024 155.646 49.3721C155.971 50.2013 155.966 51.0178 155.664 51.8413C155.573 52.0877 155.461 52.3285 155.339 52.5614C154.938 53.3255 154.404 53.9968 153.846 54.649C153.563 54.9789 153.222 54.998 152.926 54.6801C152.714 54.4514 152.528 54.1858 152.382 53.9097C152.211 53.5861 152.182 53.2242 152.329 52.8758C152.518 52.4262 152.694 51.9688 152.929 51.5432C153.263 50.9356 153.223 50.3295 153.016 49.7099C152.892 49.3402 152.62 49.1731 152.299 49.2454C151.96 49.3218 151.766 49.5782 151.853 49.9627C151.956 50.4251 151.831 50.8167 151.625 51.2118C151.461 51.5276 151.301 51.8462 151.162 52.1734C150.669 53.3283 150.918 54.3714 151.7 55.2997C151.936 55.5815 152.089 55.8697 152.186 56.2238C152.61 57.788 153.046 59.3487 153.508 60.9023C153.838 62.0126 154.213 63.1102 154.571 64.2127C154.688 64.5752 154.616 64.7756 154.274 64.9534C154.182 65.0008 154.079 65.0405 153.977 65.0561C153.386 65.1467 152.795 65.1573 152.213 64.9831C151.813 64.8627 151.518 64.6156 151.342 64.2325C151.046 63.5853 150.756 62.9353 150.456 62.2902C149.789 60.8555 149.11 59.4273 148.451 57.9891C148.086 57.1925 147.46 56.7811 146.616 56.6664C146.451 56.6444 146.271 56.6572 146.109 56.6996C145.837 56.7719 145.686 56.9864 145.676 57.2484C145.665 57.5331 145.776 57.7037 146.079 57.8071C146.302 57.8836 146.534 57.9402 146.766 57.9884C146.935 58.0238 147.02 58.118 147.036 58.2801C147.05 58.4111 147.062 58.5428 147.06 58.6746C147.037 60.0851 147.004 61.4957 146.988 62.9069C146.975 64.076 146.107 64.8967 144.915 64.8712C144.577 64.8641 144.233 64.8061 143.904 64.7225C143.627 64.6524 143.548 64.5115 143.648 64.2446C143.924 63.5091 143.833 62.7729 143.742 62.0254L143.736 61.9793C143.571 60.6318 143.372 59.2842 143.302 57.9303C143.187 55.7182 143.107 53.4976 143.728 51.3286C143.851 50.8981 143.994 50.4732 144.125 50.0448C144.171 49.8933 144.225 49.7425 144.248 49.5874C144.287 49.3112 144.174 49.1094 143.944 49.0011C143.68 48.8764 143.432 48.8934 143.262 49.1165C143.097 49.3325 142.963 49.5824 142.864 49.8366C142.511 50.7501 142.307 51.7039 142.149 52.6684C142.134 52.759 142.123 52.8511 142.103 52.941Z" fill="rgb(51,51,51)" fill-rule="evenodd" />
	</g>
</svg>
